# xmcd
#
# Track frame offsets: 
#        150
#        7902
#        18647
#        37710
#        48775
#        67552
#        78157
#        94910
#        104967
#        126377
#
# Disc length: 1916 seconds
#
# Revision: 0
# Processed by: cddbd v1.5.2PL0 Copyright (c) Steve Scherf et al.
# Submitted via: ExactAudioCopyFreeDBPlugin 1.0
#
DISCID=70077a0a
DTITLE=Montana Rose - Montana Christmas
DYEAR=2000
DGENRE=Christmas
TTITLE0=Jingle Bells
TTITLE1=Old Toy Trains
TTITLE2=Blue Christmas
TTITLE3=Here Comes Santa Claus
TTITLE4=White Christmas
TTITLE5=Rockin' Around The Christmas Tree
TTITLE6=Have Yourself A Merry Little Christmas
TTITLE7=Let It Snow
TTITLE8=Silent Night
TTITLE9=The Christmas Song
EXTD=
EXTT0=
EXTT1=
EXTT2=
EXTT3=
EXTT4=
EXTT5=
EXTT6=
EXTT7=
EXTT8=
EXTT9=
PLAYORDER=
